<?xml version="1.0" encoding="UTF-8"?>
<svg id="Capa_2" data-name="Capa 2" xmlns="http://www.w3.org/2000/svg" viewBox="0 0 452.94 126.5">
  <defs>
    <style>
      .cls-1 {
        fill: #e1dacc;
      }
    </style>
  </defs>
  <g id="Capa_1-2" data-name="Capa 1">
    <g>
      <g>
        <g>
          <path class="cls-1" d="M22.89,75.57h13.69c2.06,0,3.72,1.67,3.72,3.72v2.9c0,1.89-1.53,3.43-3.43,3.43H8.37c-4.62,0-8.37-3.75-8.37-8.37V8.61c0-1.8,1.46-3.26,3.26-3.26h4.34c3.07,0,5.56,2.49,5.56,5.56v54.93c0,5.37,4.36,9.73,9.73,9.73Z"/>
          <path class="cls-1" d="M221.64,64.22V25.35c0-1.86,1.51-3.37,3.37-3.37h3.64c3.4,0,6.15,2.76,6.15,6.15v54.11c0,1.86-1.51,3.37-3.37,3.37h-5.22c-2.53,0-4.57-2.05-4.57-4.57v-16.83M223.39,4.74c0-1.21.33-2.31,1-3.28.67-.97,1.91-1.46,3.73-1.46s3.1.49,3.83,1.46c.73.97,1.09,2.07,1.09,3.28,0,1.82-.37,3.31-1.09,4.46-.73,1.16-2,1.73-3.83,1.73s-3.07-.58-3.73-1.73c-.67-1.15-1-2.64-1-4.46Z"/>
          <path class="cls-1" d="M298.43,33.3c-2.23-4.08-5.33-7.16-9.3-9.24-3.97-2.08-8.45-3.12-13.46-3.12-2.85,0-5.58.42-8.19,1.25h0c-3.47,1.05-6.16,1-7.98.68-3.01-.52-6.05-.9-9.11-.9h-2.91c-2.16,0-3.92,1.75-3.92,3.92v55.94c0,2.09,1.69,3.78,3.78,3.78h4.93c2.46,0,4.46-2,4.46-4.46v-31.11c0-5.7,1.44-10.07,4.33-13.11,2.89-3.04,6.79-4.56,11.72-4.56s8.82,1.52,11.67,4.56c2.85,3.04,4.27,7.41,4.27,13.11v31.66c0,2.16,1.75,3.91,3.91,3.91h5.83c1.83,0,3.31-1.48,3.31-3.31v-34.23c0-5.78-1.12-10.7-3.35-14.78Z"/>
          <path class="cls-1" d="M95.51,21.98h-2.57c-2.58,0-4.68,2.1-4.68,4.68v29.71c0,5.7-1.44,10.07-4.33,13.11-2.89,3.04-6.8,4.56-11.72,4.56s-8.82-1.52-11.67-4.56c-2.85-3.04-4.27-7.41-4.27-13.11v-29.18c0-2.88-2.33-5.21-5.21-5.21h-1.75c-3.36,0-6.09,2.73-6.09,6.09v31.33c0,5.77,1.13,10.7,3.41,14.78,2.27,4.08,5.39,7.16,9.36,9.24,3.96,2.08,8.45,3.12,13.46,3.12,3.32,0,6.48-.58,9.48-1.75,1.13-.44,2.29-.84,3.49-1.01,1.73-.25,2.97-.08,3.86.24,3.18,1.15,6.56,1.59,9.94,1.59h0c2.89,0,5.23-2.34,5.23-5.23V27.89c0-3.27-2.65-5.92-5.92-5.92Z"/>
          <path class="cls-1" d="M363.32,22.83c-1.99-.79-4.23-.72-6.2.12,0,0-.02,0-.03.01-.2.1-.41.21-.67.31,0,0,0,0,0,0h0c-1.81.72-5.15,1.25-10.58-.67-.08-.03-.16-.05-.25-.08-.07-.02-.13-.04-.2-.07h0c-2.94-1.01-6.2-1.52-9.79-1.52-5.54,0-10.61,1.37-15.19,4.1-4.58,2.73-8.2,6.57-10.86,11.49-2.66,4.93-3.98,10.59-3.98,16.98s1.33,12.11,3.98,17.15c2.66,5.04,6.26,8.97,10.8,11.78,4.54,2.81,9.55,4.22,15.01,4.22,4.93,0,9.32-1,13.17-3,1.65-.86,3.16-1.81,4.51-2.85,1.86-1.43,4.55-.09,4.61,2.23.04,1.41,1.08,2.58,2.5,2.58h6.49c2.37,0,4.29-1.92,4.29-4.29v-47.26c0-5.1-3.16-9.45-7.63-11.22ZM352.53,65.02c-1.67,3.27-3.87,5.76-6.57,7.45-2.71,1.69-5.63,2.54-8.76,2.54s-5.97-.87-8.71-2.6c-2.74-1.73-4.95-4.25-6.63-7.57-1.67-3.31-2.51-5.56-2.51-9.95s.84-10.57,2.51-13.77c1.67-3.19,3.86-5.62,6.57-7.28,2.71-1.65,5.63-2.48,8.76-2.48s6.05.85,8.76,2.54c2.71,1.69,4.9,4.16,6.57,7.39,1.67,3.23,2.51,7.84,2.51,12.23s-.84,8.22-2.51,11.49Z"/>
          <path class="cls-1" d="M210.04,33.29c-2.27-4.08-5.39-7.16-9.36-9.24-3.97-2.08-8.45-3.12-13.46-3.12-4.7,0-9.62,2.01-13.7,4.28-5.25,2.94-10.99,2.14-16.41-.38-.44-.27-.9-.53-1.36-.78-3.97-2.08-8.45-3.12-13.46-3.12-.02,0-.03,0-.05,0-.02,0-.04,0-.07,0-.3,0-.59.03-.89.04-.39.01-.79.02-1.18.05-.59.04-1.17.12-1.75.2-.1.01-.2.02-.3.04-.19.03-.39.04-.58.07-1.23.21-2.42.51-3.59.9-.06.02-.12.05-.18.07-3.27.92-5.83.87-7.57.57-3.01-.52-6.05-.9-9.11-.9h-2.91s-.04,0-.07,0h-.06c-2.09,0-3.79,1.69-3.79,3.78v56.6c0,1.8,1.46,3.25,3.25,3.25h4.49c3,0,5.42-2.43,5.42-5.42v-29.08c0-5.7,1.44-10.07,4.33-13.11,2.89-3.04,6.79-4.56,11.72-4.56s8.82,1.52,11.67,4.56c2.85,3.04,4.27,7.41,4.27,13.11v29.38c0,2.83,2.3,5.13,5.13,5.13h2.81c2.83,0,5.12-2.29,5.12-5.12v-30.46c0-5.7,1.44-10.07,4.33-13.11,2.89-3.04,6.79-4.56,11.72-4.56s8.82,1.52,11.67,4.56c2.85,3.04,4.27,7.41,4.27,13.11v31.14c0,2.45,1.98,4.43,4.43,4.43h4.77c2.13,0,3.85-1.72,3.85-3.85v-33.69c0-5.78-1.14-10.7-3.41-14.78Z"/>
        </g>
        <path class="cls-1" d="M452.27,53.07c-9.81-.45-18.93-1.04-23.12-1.88-1.19-.24-1.82-1.55-1.31-2.59,3.19-3.76,10.13-11.17,15.33-16.92.84-.93-.4-2.25-1.38-1.48l-18.19,14.36-.05-.04c-1.06.57-2.35-.21-2.4-1.41-.24-5.46-1.14-15.29-1.83-22.38-.11-1.11-1.72-1.11-1.83,0-.63,6.47-1.35,15.09-2.08,22.56-.1,1-1.27,1.5-2.06.87l-18.87-14.9c-.96-.76-2.18.54-1.36,1.45,5.26,5.83,12.41,13.45,15.59,17.22.93,1.1.38,2.79-1.02,3.13-4.96,1.21-14.49,2.15-22.76,2.79-1.25.1-1.22,1.94.03,2.01,10.2.52,18.86.7,23,1.21,1.25.15,1.92,1.56,1.23,2.62-2.53,3.89-8.61,11.23-14.11,17.66-.84.98.56,2.28,1.48,1.38,5.81-5.72,12.2-12.16,15.64-15.17,1.2-1.05,3.09-.4,3.37,1.18.86,4.94,1.55,14.13,2.02,22.16.06,1.08,1.66,1.07,1.71-.02.33-8.12.59-17.09.92-22.17.11-1.59,1.97-2.39,3.2-1.38l18.12,14.97c.86.71,2.01-.45,1.28-1.29-5.05-5.85-12.29-13.49-15.34-17.65-.72-.98-.08-2.37,1.13-2.5l23.68-2.38c.87-.09.83-1.36-.04-1.4Z"/>
      </g>
      <g>
        <path class="cls-1" d="M139.3,111.61h9.1v1.46h-7.39v5.14h6.35v1.46h-6.35v5.16h7.39v1.46h-9.1v-14.68Z"/>
        <path class="cls-1" d="M156.63,126.5c-5.12,0-6.64-2.27-6.64-5.71h1.71c0,3.48,1.85,4.25,4.94,4.25,2.5,0,3.94-.6,3.94-2.37,0-2.23-2.58-2.69-4.91-3.37-2.89-.87-5-1.67-5-4.27,0-2.25,1.58-3.62,5.21-3.62,4.33,0,5.81,2.64,5.81,5.04h-1.71c0-2.5-1.85-3.58-4.1-3.58-2.02,0-3.5.5-3.5,2.12s1.29,2.1,3.71,2.85c2.87.9,6.21,1.69,6.21,4.75,0,2.19-1.31,3.92-5.64,3.92Z"/>
        <path class="cls-1" d="M174.5,113.06h-5.08v13.22h-1.69v-13.22h-5.12v-1.46h11.89v1.46Z"/>
        <path class="cls-1" d="M176.52,111.61h1.71v8.95c0,2.98,1.04,4.48,4.1,4.48s4.12-1.5,4.12-4.48v-8.95h1.71v9.23c0,3.67-1.81,5.66-5.83,5.66s-5.81-2-5.81-5.66v-9.23Z"/>
        <path class="cls-1" d="M202.76,118.94c0,6.33-3.79,7.35-7.35,7.35h-4.66v-14.68h4.66c3.56,0,7.35,1.02,7.35,7.33ZM201.05,118.94c0-5.41-3.04-5.87-5.64-5.87h-2.96v11.77h2.96c2.6,0,5.64-.46,5.64-5.89Z"/>
        <path class="cls-1" d="M208.77,113.06v11.77h3.27v1.46h-8.27v-1.46h3.29v-11.77h-3.29v-1.46h8.27v1.46h-3.27Z"/>
        <path class="cls-1" d="M219.92,111.4c4.29,0,6.83,3.27,6.83,7.54s-2.54,7.56-6.83,7.56-6.87-3.27-6.87-7.56,2.54-7.54,6.87-7.54ZM219.92,125.04c3.46,0,5.12-2.58,5.12-6.1s-1.67-6.08-5.12-6.08-5.16,2.58-5.16,6.08,1.69,6.1,5.16,6.1Z"/>
        <path class="cls-1" d="M236.49,125.25v-13.64h1.71v13.43l7.39-.21v1.46l-7.83.21c-.81.02-1.27-.46-1.27-1.25Z"/>
        <path class="cls-1" d="M256.4,120.54h-5.89l-1.83,5.75h-1.71l4.75-14.68h3.5l4.73,14.68h-1.69l-1.85-5.75ZM250.4,109.92l-.35-1.33,6.39-1.64.33,1.33-6.37,1.64ZM255.94,119.08l-2.25-7h-.48l-2.23,7h4.96Z"/>
        <path class="cls-1" d="M267.36,126.5c-5.12,0-6.64-2.27-6.64-5.71h1.71c0,3.48,1.85,4.25,4.94,4.25,2.5,0,3.94-.6,3.94-2.37,0-2.23-2.58-2.69-4.91-3.37-2.89-.87-5-1.67-5-4.27,0-2.25,1.58-3.62,5.21-3.62,4.33,0,5.81,2.64,5.81,5.04h-1.71c0-2.5-1.85-3.58-4.1-3.58-2.02,0-3.5.5-3.5,2.12s1.29,2.1,3.71,2.85c2.87.9,6.21,1.69,6.21,4.75,0,2.19-1.31,3.92-5.64,3.92Z"/>
        <path class="cls-1" d="M275.37,111.61h9.1v1.46h-7.39v5.14h6.35v1.46h-6.35v5.16h7.39v1.46h-9.1v-14.68Z"/>
        <path class="cls-1" d="M286.89,111.61h4.87c3.5,0,5.73.81,5.73,4.1,0,2.21-1.15,3.19-2.73,3.46v.5h1.75c.83,0,1.17.33,1.17,1.1v5.52h-1.71v-5.89h-7.37v5.89h-1.71v-14.68ZM291.76,118.94c2.5,0,4.02-.25,4.02-2.94s-1.52-2.94-4.02-2.94h-3.17v5.87h3.17Z"/>
      </g>
    </g>
  </g>
</svg>