<?xml version="1.0" encoding="UTF-8"?>
<svg id="Capa_2" data-name="Capa 2" xmlns="http://www.w3.org/2000/svg" viewBox="0 0 150.69 148.2">
  <defs>
    <style>
      .cls-1 {
        fill: #aa8c7c;
      }
    </style>
  </defs>
  <g id="Capa_1-2" data-name="Capa 1">
    <path class="cls-1" d="M149.22,72.52c-21.44-.99-41.39-2.28-50.54-4.11-2.59-.52-3.99-3.39-2.86-5.66,6.97-8.23,22.15-24.43,33.52-36.99,1.83-2.02-.88-4.93-3.02-3.24l-39.77,31.4-.11-.1c-2.32,1.24-5.13-.46-5.24-3.08-.52-11.93-2.48-33.42-3.99-48.93-.24-2.42-3.76-2.42-4,0-1.38,14.14-2.96,32.99-4.55,49.32-.21,2.19-2.77,3.28-4.5,1.91L22.9,20.47c-2.1-1.66-4.77,1.18-2.98,3.16,11.51,12.74,27.14,29.4,34.09,37.64,2.03,2.41.83,6.1-2.23,6.85-10.84,2.65-31.68,4.71-49.76,6.1-2.74.21-2.67,4.25.08,4.39,22.3,1.14,41.23,1.54,50.28,2.64,2.74.33,4.2,3.41,2.7,5.72-5.54,8.49-18.83,24.55-30.86,38.61-1.84,2.15,1.22,4.99,3.24,3.01,12.69-12.5,26.68-26.58,34.2-33.18,2.63-2.31,6.76-.87,7.36,2.58,1.89,10.81,3.39,30.89,4.42,48.46.14,2.37,3.64,2.33,3.73-.04.72-17.76,1.29-37.36,2.02-48.47.23-3.49,4.3-5.24,6.99-3.01l39.62,32.73c1.88,1.55,4.39-.97,2.79-2.82-11.04-12.8-26.87-29.49-33.55-38.58-1.58-2.15-.18-5.19,2.47-5.46l51.78-5.21c1.89-.19,1.82-2.97-.08-3.06Z"/>
  </g>
</svg>