<?xml version="1.0" encoding="UTF-8"?>
<svg id="Capa_2" data-name="Capa 2" xmlns="http://www.w3.org/2000/svg" viewBox="0 0 359.06 234.03">
  <defs>
    <style>
      .cls-1 {
        fill: #aa8c7c;
      }
    </style>
  </defs>
  <g id="Capa_1-2" data-name="Capa 1">
    <g>
      <g>
        <path class="cls-1" d="M22.16,179.09h13.25c1.99,0,3.6,1.61,3.6,3.6v2.8c0,1.83-1.49,3.32-3.32,3.32H8.1c-4.47,0-8.1-3.63-8.1-8.1v-66.44c0-1.74,1.41-3.16,3.16-3.16h4.2c2.97,0,5.38,2.41,5.38,5.38v53.17c0,5.2,4.22,9.42,9.42,9.42Z"/>
        <path class="cls-1" d="M215.2,116.71c-1.57-1.56-2.35-3.5-2.35-5.81s.78-4.25,2.35-5.81c1.56-1.57,3.5-2.35,5.81-2.35s4.14.78,5.7,2.35c1.56,1.56,2.35,3.5,2.35,5.81s-.78,4.25-2.35,5.81c-1.57,1.57-3.47,2.35-5.7,2.35s-4.25-.78-5.81-2.35ZM227.28,133.17v52.38c0,1.8-1.46,3.26-3.26,3.26h-5.05c-2.45,0-4.43-1.98-4.43-4.43v-53.91c0-1.8,1.46-3.26,3.26-3.26h3.53c3.29,0,5.96,2.67,5.96,5.96Z"/>
        <path class="cls-1" d="M288.87,138.17c-2.16-3.95-5.16-6.93-9-8.94-3.84-2.01-8.18-3.02-13.02-3.02-2.76,0-5.4.41-7.93,1.21h0c-3.36,1.02-5.96.96-7.72.66-2.92-.51-5.86-.87-8.82-.87h-2.82c-2.1,0-3.79,1.7-3.79,3.79v54.15c0,2.02,1.64,3.66,3.66,3.66h4.77c2.38,0,4.32-1.93,4.32-4.32v-30.12c0-5.51,1.4-9.74,4.19-12.69,2.8-2.94,6.58-4.42,11.35-4.42s8.53,1.47,11.29,4.42c2.76,2.94,4.14,7.17,4.14,12.69v30.65c0,2.09,1.7,3.79,3.79,3.79h5.64c1.77,0,3.2-1.43,3.2-3.2v-33.13c0-5.59-1.08-10.36-3.24-14.31Z"/>
        <path class="cls-1" d="M92.45,127.22h-2.49c-2.5,0-4.53,2.03-4.53,4.53v28.76c0,5.52-1.4,9.75-4.19,12.69-2.79,2.94-6.58,4.42-11.35,4.42s-8.53-1.47-11.29-4.42c-2.76-2.94-4.14-7.17-4.14-12.69v-28.24c0-2.78-2.26-5.04-5.04-5.04h-1.69c-3.26,0-5.9,2.64-5.9,5.9v30.33c0,5.59,1.1,10.36,3.3,14.31,2.2,3.95,5.22,6.93,9.06,8.94,3.84,2.01,8.18,3.02,13.02,3.02,3.21,0,6.27-.56,9.17-1.69,1.1-.43,2.21-.81,3.38-.98,1.67-.24,2.88-.08,3.74.23,3.07,1.11,6.35,1.54,9.62,1.54h0c2.8,0,5.06-2.27,5.06-5.06v-50.81c0-3.16-2.56-5.73-5.73-5.73Z"/>
        <path class="cls-1" d="M351.68,128.05c-1.92-.76-4.1-.69-6,.12,0,0-.02,0-.02.01-.19.1-.4.2-.65.3,0,0,0,0,0,0h0c-1.75.7-4.99,1.21-10.24-.65-.08-.03-.16-.05-.24-.08-.07-.02-.12-.04-.19-.06h0c-2.84-.98-6-1.47-9.47-1.47-5.37,0-10.27,1.32-14.7,3.97-4.44,2.65-7.94,6.35-10.51,11.12-2.57,4.77-3.86,10.25-3.86,16.43s1.29,11.72,3.86,16.6c2.57,4.88,6.05,8.68,10.45,11.4,4.4,2.72,9.24,4.08,14.53,4.08,4.77,0,9.02-.97,12.74-2.91,1.6-.83,3.05-1.75,4.37-2.76,1.8-1.39,4.4-.09,4.47,2.16.04,1.37,1.05,2.5,2.42,2.5h6.28c2.3,0,4.16-1.86,4.16-4.16v-45.75c0-4.94-3.06-9.15-7.39-10.86ZM341.23,168.88c-1.62,3.17-3.74,5.57-6.36,7.21-2.62,1.64-5.45,2.46-8.48,2.46s-5.78-.84-8.43-2.52c-2.66-1.68-4.79-4.12-6.41-7.32-1.62-3.2-2.43-6.93-2.43-11.18s.81-7.92,2.43-11.01c1.62-3.09,3.74-5.44,6.36-7.04,2.62-1.6,5.45-2.4,8.48-2.4s5.86.82,8.48,2.46c2.62,1.64,4.74,4.02,6.36,7.15,1.62,3.13,2.43,6.82,2.43,11.07s-.81,7.96-2.43,11.12Z"/>
        <path class="cls-1" d="M203.31,138.17c-2.2-3.95-5.22-6.93-9.06-8.94-3.84-2.01-8.18-3.02-13.02-3.02-4.55,0-8.8,1.1-12.74,3.3-5.08,2.85-11.16,2.92-16.4.48-.43-.26-.87-.52-1.32-.75-3.84-2.01-8.18-3.02-13.02-3.02-.02,0-.03,0-.05,0-.02,0-.04,0-.06,0-.29,0-.57.03-.86.04-.38.01-.77.02-1.14.05-.57.04-1.14.11-1.7.19-.1.01-.19.02-.29.04-.18.03-.37.04-.56.07-1.19.21-2.35.5-3.48.87-.06.02-.12.04-.18.06-3.17.89-5.64.85-7.33.55-2.92-.51-5.86-.87-8.82-.87h-2.82s-.04,0-.07,0h-.06c-2.03,0-3.67,1.64-3.67,3.66v54.78c0,1.74,1.41,3.15,3.15,3.15h4.34c2.9,0,5.25-2.35,5.25-5.25v-28.15c0-5.51,1.4-9.74,4.19-12.69,2.8-2.94,6.58-4.42,11.35-4.42s8.53,1.47,11.29,4.42c2.76,2.94,4.14,7.17,4.14,12.69v28.43c0,2.74,2.22,4.96,4.96,4.96h2.72c2.74,0,4.95-2.22,4.95-4.95v-29.48c0-5.51,1.4-9.74,4.19-12.69,2.79-2.94,6.58-4.42,11.35-4.42s8.53,1.47,11.29,4.42c2.76,2.94,4.14,7.17,4.14,12.69v30.14c0,2.37,1.92,4.29,4.29,4.29h4.62c2.06,0,3.73-1.67,3.73-3.73v-32.61c0-5.59-1.1-10.36-3.3-14.31Z"/>
      </g>
      <path class="cls-1" d="M223.69,43.34c-12.81-.59-24.74-1.37-30.21-2.46-1.55-.31-2.38-2.02-1.71-3.38,4.17-4.92,13.24-14.6,20.03-22.11,1.09-1.21-.53-2.94-1.81-1.93l-23.77,18.77-.07-.06c-1.38.74-3.07-.28-3.13-1.84-.31-7.13-1.48-19.98-2.39-29.24-.14-1.45-2.25-1.45-2.39,0-.82,8.45-1.77,19.72-2.72,29.48-.13,1.31-1.65,1.96-2.69,1.14l-24.66-19.47c-1.25-.99-2.85.71-1.78,1.89,6.88,7.61,16.22,17.57,20.38,22.5,1.21,1.44.5,3.65-1.33,4.09-6.48,1.59-18.93,2.82-29.74,3.65-1.64.13-1.6,2.54.05,2.62,13.33.68,24.64.92,30.06,1.58,1.63.2,2.51,2.04,1.61,3.42-3.31,5.08-11.26,14.67-18.44,23.08-1.1,1.28.73,2.98,1.93,1.8,7.59-7.47,15.95-15.89,20.44-19.83,1.57-1.38,4.04-.52,4.4,1.54,1.13,6.46,2.02,18.46,2.64,28.96.08,1.41,2.18,1.39,2.23-.02.43-10.61.77-22.33,1.21-28.97.14-2.08,2.57-3.13,4.18-1.8l23.68,19.56c1.12.93,2.62-.58,1.67-1.69-6.6-7.65-16.06-17.63-20.05-23.06-.94-1.28-.11-3.1,1.48-3.26l30.95-3.12c1.13-.11,1.09-1.78-.05-1.83Z"/>
      <g>
        <path class="cls-1" d="M83.64,216h11.02v1.77h-8.95v6.23h7.69v1.77h-7.69v6.25h8.95v1.77h-11.02v-17.78Z"/>
        <path class="cls-1" d="M104.62,234.03c-6.2,0-8.04-2.75-8.04-6.91h2.07c0,4.21,2.24,5.14,5.98,5.14,3.03,0,4.77-.73,4.77-2.87,0-2.7-3.13-3.25-5.95-4.09-3.51-1.06-6.05-2.02-6.05-5.17,0-2.72,1.92-4.39,6.3-4.39,5.25,0,7.04,3.2,7.04,6.1h-2.07c0-3.03-2.24-4.34-4.97-4.34-2.45,0-4.24.61-4.24,2.57s1.56,2.55,4.49,3.45c3.48,1.08,7.51,2.04,7.51,5.75,0,2.65-1.59,4.74-6.83,4.74Z"/>
        <path class="cls-1" d="M126.26,217.77h-6.15v16.01h-2.04v-16.01h-6.2v-1.77h14.4v1.77Z"/>
        <path class="cls-1" d="M128.71,216h2.07v10.84c0,3.61,1.26,5.42,4.97,5.42s4.99-1.82,4.99-5.42v-10.84h2.07v11.17c0,4.44-2.19,6.86-7.06,6.86s-7.04-2.42-7.04-6.86v-11.17Z"/>
        <path class="cls-1" d="M160.48,224.88c0,7.67-4.59,8.9-8.9,8.9h-5.65v-17.78h5.65c4.31,0,8.9,1.24,8.9,8.88ZM158.41,224.88c0-6.56-3.68-7.11-6.83-7.11h-3.58v14.25h3.58c3.15,0,6.83-.55,6.83-7.14Z"/>
        <path class="cls-1" d="M167.77,217.77v14.25h3.96v1.77h-10.01v-1.77h3.98v-14.25h-3.98v-1.77h10.01v1.77h-3.96Z"/>
        <path class="cls-1" d="M181.26,215.75c5.19,0,8.27,3.96,8.27,9.13s-3.08,9.15-8.27,9.15-8.32-3.96-8.32-9.15,3.08-9.13,8.32-9.13ZM181.26,232.27c4.19,0,6.2-3.13,6.2-7.39s-2.02-7.36-6.2-7.36-6.25,3.13-6.25,7.36,2.04,7.39,6.25,7.39Z"/>
        <path class="cls-1" d="M201.33,232.52v-16.52h2.07v16.26l8.95-.25v1.77l-9.48.25c-.98.03-1.54-.55-1.54-1.51Z"/>
        <path class="cls-1" d="M225.44,226.82h-7.14l-2.22,6.96h-2.07l5.75-17.78h4.24l5.72,17.78h-2.04l-2.24-6.96ZM218.18,213.96l-.43-1.61,7.74-1.99.4,1.61-7.72,1.99ZM224.88,225.06l-2.72-8.47h-.58l-2.7,8.47h6Z"/>
        <path class="cls-1" d="M238.7,234.03c-6.2,0-8.04-2.75-8.04-6.91h2.07c0,4.21,2.24,5.14,5.98,5.14,3.03,0,4.77-.73,4.77-2.87,0-2.7-3.13-3.25-5.95-4.09-3.51-1.06-6.05-2.02-6.05-5.17,0-2.72,1.92-4.39,6.3-4.39,5.25,0,7.04,3.2,7.04,6.1h-2.07c0-3.03-2.24-4.34-4.97-4.34-2.45,0-4.24.61-4.24,2.57s1.56,2.55,4.49,3.45c3.48,1.08,7.51,2.04,7.51,5.75,0,2.65-1.59,4.74-6.83,4.74Z"/>
        <path class="cls-1" d="M248.41,216h11.02v1.77h-8.95v6.23h7.69v1.77h-7.69v6.25h8.95v1.77h-11.02v-17.78Z"/>
        <path class="cls-1" d="M262.36,216h5.9c4.24,0,6.93.98,6.93,4.97,0,2.67-1.39,3.86-3.3,4.19v.61h2.12c1.01,0,1.41.4,1.41,1.34v6.68h-2.07v-7.14h-8.93v7.14h-2.07v-17.78ZM268.26,224.88c3.03,0,4.87-.3,4.87-3.56s-1.84-3.56-4.87-3.56h-3.83v7.11h3.83Z"/>
      </g>
    </g>
  </g>
</svg>